<?xml version="1.0" encoding="utf-8"?>
<!-- Generator: Adobe Illustrator 21.0.2, SVG Export Plug-In . SVG Version: 6.00 Build 0)  -->
<svg version="1.1" id="Layer_1" xmlns="http://www.w3.org/2000/svg" xmlns:xlink="http://www.w3.org/1999/xlink" x="0px" y="0px"
	 viewBox="0 0 792 612" style="enable-background:new 0 0 792 612;" xml:space="preserve">
<style type="text/css">
	.st0{fill:#FFFFFF;}
</style>
<path class="st0" d="M289,327.6h2.7v2.9c0.2-0.6,0.8-1.3,1.6-2.1c0.9-0.8,1.9-1.2,3-1.2c0.1,0,0.1,0,0.3,0c0.1,0,0.3,0,0.6,0.1v3
	c-0.2,0-0.3-0.1-0.5-0.1c-0.1,0-0.3,0-0.5,0c-1.4,0-2.5,0.5-3.3,1.4c-0.8,0.9-1.2,2-1.2,3.2v9.7H289V327.6z"/>
<path class="st0" d="M314.9,328.1c1.1,0.6,2,1.3,2.6,2.2c0.6,0.9,0.9,1.9,1.1,3c0.2,0.8,0.3,2,0.3,3.7h-12.3
	c0.1,1.7,0.5,3.1,1.2,4.2c0.8,1,1.9,1.6,3.5,1.6c1.5,0,2.7-0.5,3.5-1.5c0.5-0.6,0.8-1.2,1-2h2.8c-0.1,0.6-0.3,1.3-0.7,2.1
	c-0.4,0.8-0.9,1.4-1.4,1.9c-0.9,0.8-1.9,1.4-3.2,1.7c-0.7,0.2-1.5,0.3-2.3,0.3c-2.1,0-3.9-0.8-5.3-2.3c-1.5-1.5-2.2-3.7-2.2-6.5
	c0-2.7,0.7-4.9,2.2-6.6c1.5-1.7,3.4-2.5,5.8-2.5C312.6,327.2,313.8,327.5,314.9,328.1z M316,334.7c-0.1-1.2-0.4-2.2-0.8-3
	c-0.8-1.4-2.1-2.1-3.9-2.1c-1.3,0-2.4,0.5-3.3,1.4c-0.9,0.9-1.3,2.1-1.4,3.6H316z"/>
<path class="st0" d="M339.2,328.5c1.2,0.9,1.9,2.5,2.2,4.8h-2.8c-0.2-1-0.6-1.9-1.2-2.6c-0.6-0.7-1.6-1-2.9-1
	c-1.8,0-3.1,0.9-3.9,2.7c-0.5,1.1-0.8,2.6-0.8,4.3c0,1.7,0.4,3.1,1.1,4.3c0.7,1.2,1.8,1.7,3.4,1.7c1.2,0,2.1-0.4,2.8-1.1
	c0.7-0.7,1.2-1.7,1.4-3h2.8c-0.3,2.2-1.1,3.9-2.4,4.9c-1.3,1-2.9,1.6-4.9,1.6c-2.2,0-4-0.8-5.3-2.4c-1.3-1.6-2-3.6-2-6.1
	c0-3,0.7-5.3,2.2-6.9c1.4-1.7,3.3-2.5,5.5-2.5C336.4,327.1,338,327.6,339.2,328.5z"/>
<path class="st0" d="M358.8,327.6h3.1c-0.4,1.1-1.3,3.6-2.7,7.4c-1,2.9-1.9,5.3-2.6,7.1c-1.6,4.3-2.8,7-3.5,7.9
	c-0.7,0.9-1.8,1.4-3.5,1.4c-0.4,0-0.7,0-0.9,0c-0.2,0-0.5-0.1-0.8-0.2v-2.6c0.5,0.1,0.9,0.2,1.1,0.3c0.2,0,0.4,0,0.6,0
	c0.5,0,0.9-0.1,1.2-0.3c0.2-0.2,0.5-0.4,0.6-0.6c0.1-0.1,0.2-0.5,0.6-1.3c0.3-0.8,0.6-1.4,0.7-1.7l-6.3-17.4h3.2l4.5,13.8
	L358.8,327.6z"/>
<path class="st0" d="M379.7,328.5c1.2,0.9,1.9,2.5,2.2,4.8h-2.8c-0.2-1-0.6-1.9-1.2-2.6c-0.6-0.7-1.6-1-2.9-1
	c-1.8,0-3.1,0.9-3.9,2.7c-0.5,1.1-0.8,2.6-0.8,4.3c0,1.7,0.4,3.1,1.1,4.3c0.7,1.2,1.8,1.7,3.4,1.7c1.2,0,2.1-0.4,2.8-1.1
	c0.7-0.7,1.2-1.7,1.4-3h2.8c-0.3,2.2-1.1,3.9-2.4,4.9c-1.3,1-2.9,1.6-4.9,1.6c-2.2,0-4-0.8-5.3-2.4c-1.3-1.6-2-3.6-2-6.1
	c0-3,0.7-5.3,2.2-6.9c1.4-1.7,3.3-2.5,5.5-2.5C376.9,327.1,378.5,327.6,379.7,328.5z"/>
<path class="st0" d="M389.5,320.1h2.8v24.5h-2.8V320.1z"/>
<path class="st0" d="M401,320.2h2.9v3.4H401V320.2z M401,326.9h2.9v17.7H401V326.9z"/>
<path class="st0" d="M413,327.6h2.7v2.4c0.8-1,1.7-1.7,2.5-2.1c0.9-0.4,1.9-0.6,3-0.6c2.4,0,4,0.8,4.9,2.5c0.5,0.9,0.7,2.2,0.7,3.9
	v10.9h-2.9v-10.7c0-1-0.2-1.9-0.5-2.5c-0.5-1.1-1.4-1.6-2.8-1.6c-0.7,0-1.2,0.1-1.7,0.2c-0.8,0.2-1.5,0.7-2.1,1.4
	c-0.5,0.6-0.8,1.1-0.9,1.7c-0.1,0.6-0.2,1.4-0.2,2.6v8.9H413V327.6z"/>
<path class="st0" d="M445.6,328.3c0.5,0.4,1.1,0.9,1.6,1.6v-2.1h2.6v15.4c0,2.2-0.3,3.9-0.9,5.1c-1.2,2.3-3.4,3.5-6.7,3.5
	c-1.8,0-3.3-0.4-4.6-1.2c-1.2-0.8-1.9-2.1-2.1-3.8h2.9c0.1,0.8,0.4,1.3,0.8,1.8c0.6,0.6,1.6,1,3,1c2.2,0,3.6-0.8,4.3-2.3
	c0.4-0.9,0.6-2.5,0.6-4.9c-0.6,0.9-1.3,1.5-2,1.9c-0.8,0.4-1.9,0.6-3.2,0.6c-1.8,0-3.4-0.7-4.8-2c-1.4-1.3-2.1-3.5-2.1-6.5
	c0-2.8,0.7-5.1,2.1-6.6c1.4-1.6,3-2.4,5-2.4C443.4,327.3,444.6,327.6,445.6,328.3z M445.9,331.3c-0.9-1-2-1.5-3.3-1.5
	c-2,0-3.4,0.9-4.1,2.8c-0.4,1-0.6,2.3-0.6,3.9c0,1.9,0.4,3.4,1.2,4.4c0.8,1,1.8,1.5,3.1,1.5c2,0,3.5-0.9,4.3-2.8
	c0.5-1,0.7-2.3,0.7-3.7C447.2,333.9,446.8,332.4,445.9,331.3z"/>
<path class="st0" d="M474.6,339.2c0.1,0.9,0.3,1.7,0.7,2.2c0.7,0.9,2,1.4,3.8,1.4c1.1,0,2-0.2,2.8-0.7c0.8-0.5,1.2-1.2,1.2-2.1
	c0-0.7-0.3-1.3-1-1.7c-0.4-0.2-1.2-0.5-2.5-0.8l-2.3-0.6c-1.5-0.4-2.6-0.8-3.2-1.2c-1.2-0.8-1.9-1.8-1.9-3.2c0-1.6,0.6-2.9,1.8-3.9
	c1.2-1,2.7-1.5,4.7-1.5c2.6,0,4.5,0.8,5.6,2.2c0.7,0.9,1.1,2,1,3.1h-2.7c-0.1-0.6-0.3-1.2-0.7-1.7c-0.7-0.7-1.8-1.1-3.5-1.1
	c-1.1,0-1.9,0.2-2.5,0.6c-0.6,0.4-0.8,1-0.8,1.6c0,0.7,0.4,1.3,1.1,1.8c0.4,0.3,1.1,0.5,1.9,0.7l1.9,0.5c2.1,0.5,3.5,1,4.2,1.4
	c1.1,0.7,1.7,1.9,1.7,3.4c0,1.5-0.6,2.8-1.7,3.9c-1.2,1.1-2.9,1.6-5.3,1.6c-2.6,0-4.4-0.6-5.4-1.7c-1.1-1.1-1.6-2.6-1.7-4.2H474.6z"
	/>
<path class="st0" d="M505.6,329.3c1.5,1.5,2.2,3.6,2.2,6.4c0,2.7-0.7,5-2,6.8c-1.3,1.8-3.4,2.7-6.1,2.7c-2.3,0-4.2-0.8-5.5-2.4
	c-1.4-1.6-2-3.7-2-6.3c0-2.8,0.7-5.1,2.2-6.8c1.4-1.7,3.4-2.5,5.8-2.5C502.3,327.1,504.1,327.9,505.6,329.3z M503.8,340.6
	c0.7-1.4,1-3,1-4.8c0-1.6-0.2-2.9-0.8-3.9c-0.8-1.6-2.2-2.3-4.1-2.3c-1.7,0-3,0.7-3.8,2c-0.8,1.3-1.2,2.9-1.2,4.8
	c0,1.8,0.4,3.3,1.2,4.5c0.8,1.2,2,1.8,3.7,1.8C501.9,342.7,503.1,342,503.8,340.6z"/>
<path class="st0" d="M515.8,319.9h2.8v24.7h-2.8V319.9z"/>
<path class="st0" d="M530.9,327.6v11.3c0,0.9,0.1,1.6,0.4,2.1c0.5,1,1.4,1.5,2.8,1.5c1.9,0,3.2-0.9,3.9-2.7c0.4-0.9,0.6-2.3,0.6-3.9
	v-8.3h2.8v17h-2.7l0-2.5c-0.4,0.6-0.8,1.2-1.4,1.6c-1.1,0.9-2.4,1.3-3.9,1.3c-2.4,0-4-0.8-4.8-2.4c-0.5-0.9-0.7-2-0.7-3.5v-11.5
	H530.9z"/>
<path class="st0" d="M550.9,322.9h2.9v4.7h2.7v2.3h-2.7V341c0,0.6,0.2,1,0.6,1.2c0.2,0.1,0.6,0.2,1.1,0.2c0.1,0,0.3,0,0.4,0
	c0.2,0,0.3,0,0.6-0.1v2.3c-0.3,0.1-0.7,0.2-1,0.2c-0.4,0-0.7,0.1-1.1,0.1c-1.3,0-2.2-0.3-2.7-1c-0.5-0.7-0.7-1.6-0.7-2.7v-11.2h-2.3
	v-2.3h2.3V322.9z"/>
<path class="st0" d="M563.4,320.2h2.9v3.4h-2.9V320.2z M563.4,326.9h2.9v17.7h-2.9V326.9z"/>
<path class="st0" d="M588.3,329.3c1.5,1.5,2.2,3.6,2.2,6.4c0,2.7-0.7,5-2,6.8c-1.3,1.8-3.4,2.7-6.1,2.7c-2.3,0-4.2-0.8-5.5-2.4
	c-1.4-1.6-2-3.7-2-6.3c0-2.8,0.7-5.1,2.2-6.8c1.4-1.7,3.4-2.5,5.8-2.5C585,327.1,586.8,327.9,588.3,329.3z M586.6,340.6
	c0.7-1.4,1-3,1-4.8c0-1.6-0.2-2.9-0.8-3.9c-0.8-1.6-2.2-2.3-4.1-2.3c-1.7,0-3,0.7-3.8,2c-0.8,1.3-1.2,2.9-1.2,4.8
	c0,1.8,0.4,3.3,1.2,4.5c0.8,1.2,2,1.8,3.7,1.8C584.6,342.7,585.9,342,586.6,340.6z"/>
<path class="st0" d="M598.5,327.6h2.7v2.4c0.8-1,1.7-1.7,2.5-2.1c0.9-0.4,1.9-0.6,3-0.6c2.4,0,4,0.8,4.9,2.5
	c0.5,0.9,0.7,2.2,0.7,3.9v10.9h-2.9v-10.7c0-1-0.2-1.9-0.5-2.5c-0.5-1.1-1.4-1.6-2.8-1.6c-0.7,0-1.2,0.1-1.7,0.2
	c-0.8,0.2-1.5,0.7-2.1,1.4c-0.5,0.6-0.8,1.1-0.9,1.7c-0.1,0.6-0.2,1.4-0.2,2.6v8.9h-2.8V327.6z"/>
<path class="st0" d="M623,339.2c0.1,0.9,0.3,1.7,0.7,2.2c0.7,0.9,2,1.4,3.8,1.4c1.1,0,2-0.2,2.8-0.7c0.8-0.5,1.2-1.2,1.2-2.1
	c0-0.7-0.3-1.3-1-1.7c-0.4-0.2-1.2-0.5-2.5-0.8l-2.3-0.6c-1.5-0.4-2.6-0.8-3.2-1.2c-1.2-0.8-1.9-1.8-1.9-3.2c0-1.6,0.6-2.9,1.8-3.9
	c1.2-1,2.7-1.5,4.7-1.5c2.6,0,4.5,0.8,5.6,2.2c0.7,0.9,1.1,2,1,3.1h-2.7c-0.1-0.6-0.3-1.2-0.7-1.7c-0.7-0.7-1.8-1.1-3.5-1.1
	c-1.1,0-1.9,0.2-2.5,0.6c-0.6,0.4-0.8,1-0.8,1.6c0,0.7,0.4,1.3,1.1,1.8c0.4,0.3,1.1,0.5,1.9,0.7l1.9,0.5c2.1,0.5,3.5,1,4.2,1.4
	c1.1,0.7,1.7,1.9,1.7,3.4c0,1.5-0.6,2.8-1.7,3.9c-1.2,1.1-2.9,1.6-5.3,1.6c-2.6,0-4.4-0.6-5.4-1.7c-1.1-1.1-1.6-2.6-1.7-4.2H623z"/>
<path class="st0" d="M190.3,264.1c-1,1.6-3.2,2.2-4.9,1.3c-1.8-0.9-2.4-2.9-1.4-4.5c1-1.6,3.2-2.2,5-1.3
	C190.6,260.5,191.2,262.5,190.3,264.1z"/>
<path class="st0" d="M184.3,274.8c-1.2,2-4,2.7-6.2,1.6c-2.2-1.1-3-3.6-1.7-5.6c1.2-2,4-2.7,6.2-1.6
	C184.7,270.3,185.5,272.8,184.3,274.8z"/>
<path class="st0" d="M179,288c-1.5,2.5-5,3.4-7.7,2c-2.7-1.4-3.7-4.5-2.2-7c1.5-2.5,5-3.4,7.7-2C179.6,282.4,180.6,285.5,179,288z"
	/>
<path class="st0" d="M175.2,301.8c-1.8,2.9-6,3.9-9.4,2.2c-3.4-1.7-4.7-5.5-2.9-8.5c1.8-2.9,6-3.9,9.4-2.2
	C175.7,295.1,177,298.9,175.2,301.8z"/>
<path class="st0" d="M174.3,318.2c-2.1,3.4-7,4.5-10.9,2.5c-3.9-2-5.4-6.4-3.3-9.8c2.1-3.4,7-4.5,10.9-2.5
	C174.9,310.4,176.4,314.8,174.3,318.2z"/>
<path class="st0" d="M200.4,263.5c-0.6,1.8-2.6,2.8-4.5,2.3c-1.9-0.5-3-2.3-2.4-4.1c0.6-1.8,2.6-2.8,4.5-2.3
	C200,259.9,201,261.8,200.4,263.5z"/>
<path class="st0" d="M209.8,263.3c-0.6,1.8-2.6,2.8-4.5,2.3c-1.9-0.5-3-2.3-2.4-4.1c0.6-1.8,2.6-2.8,4.5-2.3
	C209.3,259.7,210.4,261.5,209.8,263.3z"/>
<path class="st0" d="M197,274.3c-0.8,2.2-3.3,3.5-5.7,2.9c-2.4-0.6-3.7-2.9-2.9-5.1c0.8-2.2,3.3-3.5,5.7-2.9
	C196.4,269.8,197.7,272.1,197,274.3z"/>
<path class="st0" d="M209.2,273.8c-0.8,2.2-3.3,3.5-5.7,2.9c-2.4-0.6-3.7-2.9-2.9-5.1c0.8-2.2,3.3-3.5,5.7-2.9
	C208.6,269.3,209.9,271.6,209.2,273.8z"/>
<path class="st0" d="M195,286.6c-0.9,2.8-4.1,4.4-7.1,3.6c-3-0.7-4.6-3.6-3.7-6.4c0.9-2.8,4.1-4.4,7.1-3.6
	C194.3,281,195.9,283.8,195,286.6z"/>
<path class="st0" d="M211.1,286.4c-0.9,2.8-4.1,4.4-7.1,3.6c-3-0.7-4.6-3.6-3.7-6.4c0.9-2.8,4.1-4.4,7.1-3.6
	C210.4,280.7,212,283.6,211.1,286.4z"/>
<path class="st0" d="M196,300.2c-1.1,3.3-5,5.1-8.7,4.2c-3.7-0.9-5.8-4.3-4.7-7.6c1.1-3.3,5-5.1,8.7-4.2
	C195,293.5,197.1,296.9,196,300.2z"/>
<path class="st0" d="M216.5,299.7c-1.1,3.3-5,5.1-8.7,4.2c-3.7-0.9-5.8-4.3-4.7-7.6c1.1-3.3,5-5.1,8.7-4.2
	C215.5,293,217.6,296.4,216.5,299.7z"/>
<path class="st0" d="M199.1,315.9c-1.3,3.8-5.8,5.9-10.1,4.9c-4.3-1.1-6.7-5-5.4-8.8c1.3-3.8,5.8-5.9,10.1-4.9
	C198,308.2,200.4,312.1,199.1,315.9z"/>
<path class="st0" d="M222.8,315.6c-1.3,3.8-5.8,5.9-10.1,4.9c-4.3-1.1-6.7-5-5.4-8.8c1.3-3.8,5.8-5.9,10.1-4.9
	C221.7,307.9,224.1,311.8,222.8,315.6z"/>
<path class="st0" d="M205.8,333.2c-1.5,4.3-6.7,6.7-11.7,5.4c-5-1.3-7.9-5.8-6.4-10c1.5-4.3,6.7-6.7,11.7-5.4
	C204.4,324.4,207.3,328.9,205.8,333.2z"/>
<path class="st0" d="M236,332.5c-1.5,4.3-6.7,6.7-11.7,5.4c-5-1.3-7.9-5.8-6.4-10c1.5-4.3,6.7-6.7,11.7-5.4
	C234.6,323.8,237.4,328.3,236,332.5z"/>
<path class="st0" d="M256.5,346.5c-1.6,4.8-7.6,7.4-13.3,6c-5.7-1.5-9-6.5-7.3-11.3c1.6-4.8,7.6-7.4,13.3-6
	C254.9,336.7,258.2,341.7,256.5,346.5z"/>
<path class="st0" d="M271.4,307.5h-13.8L234.3,260h14.4l17.3,36.4l17.7-36.4H295L271.4,307.5z"/>
<path class="st0" d="M354.7,307.5h-14.3l-5.9-11.3h-28.6l-5.8,11.3h-11.4l24.7-47.5h16.5L354.7,307.5z M330.8,289.4L320,268.2
	l-10.8,21.2H330.8z"/>
<path class="st0" d="M417.7,307.5h-13.2L376,277.2c-0.4-0.5-1.2-1.2-2.1-2.3c-0.4-0.5-1.1-1.2-2-2.2v34.8H361V260h15l26.3,28
	c0.2,0.2,1.8,1.9,4.8,5.1V260h10.7V307.5z"/>
<path class="st0" d="M446.9,307.5V260h27.7c10.2,0,18.4,2.3,24.6,6.9c6.2,4.6,9.3,10.2,9.3,17c0,6.7-3.2,12.4-9.6,16.9
	c-6.4,4.5-15.5,6.8-27.4,6.8H446.9z M460.8,300.5h11.3c6,0,11.2-1.4,15.4-4.3c4.2-2.9,6.3-7.2,6.3-12.8c0-4.6-1.8-8.6-5.5-11.8
	c-3.7-3.2-8.6-4.8-14.6-4.8h-12.9V300.5z"/>
<path class="st0" d="M544.6,307.5h-14.3v-20L504.8,260h16.3l17.8,19.6l17-19.6h12.9l-24.2,27.5V307.5z"/>
<path class="st0" d="M633.5,307.5h-15.2l-15.9-24.2l-14.6,12.2v12h-13.6V260h13.6V285c1.7-1.7,3-2.9,3.7-3.5l25-21.4h13.7
	l-17.9,15.6L633.5,307.5z"/>
</svg>
